HIERARCHY
ROOT Hips
{
	OFFSET 0.00000 0.00000 0.00000
	CHANNELS 6 Xposition Yposition Zposition Zrotation Yrotation Xrotation 
	JOINT LHipJoint
	{
		OFFSET 0 0 0
		CHANNELS 3 Zrotation Yrotation Xrotation
		JOINT LeftUpLeg
		{
			OFFSET 1.36337 -1.57426 1.11036
			CHANNELS 3 Zrotation Yrotation Xrotation
			JOINT LeftLeg
			{
				OFFSET 2.38468 -6.55187 0.00000
				CHANNELS 3 Zrotation Yrotation Xrotation
				JOINT LeftFoot
				{
					OFFSET 2.37166 -6.51609 0.00000
					CHANNELS 3 Zrotation Yrotation Xrotation
					JOINT LeftToeBase
					{
						OFFSET 0.29078 -0.79891 2.01393
						CHANNELS 3 Zrotation Yrotation Xrotation
						End Site
						{
							OFFSET 0.00000 -0.00000 1.07924
						}
					}
				}
			}
		}
	}
	JOINT RHipJoint
	{
		OFFSET 0 0 0
		CHANNELS 3 Zrotation Yrotation Xrotation
		JOINT RightUpLeg
		{
			OFFSET -1.36349 -1.57426 1.11036
			CHANNELS 3 Zrotation Yrotation Xrotation
			JOINT RightLeg
			{
				OFFSET -2.29562 -6.30717 0.00000
				CHANNELS 3 Zrotation Yrotation Xrotation
				JOINT RightFoot
				{
					OFFSET -2.40985 -6.62100 0.00000
					CHANNELS 3 Zrotation Yrotation Xrotation
					JOINT RightToeBase
					{
						OFFSET -0.23197 -0.63733 1.92232
						CHANNELS 3 Zrotation Yrotation Xrotation
						End Site
						{
							OFFSET -0.00000 -0.00000 1.01562
						}
					}
				}
			}
		}
	}
	JOINT LowerBack
	{
		OFFSET 0 0 0
		CHANNELS 3 Zrotation Yrotation Xrotation
		JOINT Spine
		{
			OFFSET -0.08565 2.03602 -0.24562
			CHANNELS 3 Zrotation Yrotation Xrotation
			JOINT Spine1
			{
				OFFSET -0.00036 2.05693 0.00216
				CHANNELS 3 Zrotation Yrotation Xrotation
				JOINT Neck
				{
					OFFSET 0 0 0
					CHANNELS 3 Zrotation Yrotation Xrotation
					JOINT Neck1
					{
						OFFSET -0.03664 1.69515 0.31789
						CHANNELS 3 Zrotation Yrotation Xrotation
						JOINT Head
						{
							OFFSET 0.00932 1.70181 -0.46013
							CHANNELS 3 Zrotation Yrotation Xrotation
							End Site
							{
								OFFSET 0.01243 1.77620 -0.19377
							}
						}
					}
				}
				JOINT LeftShoulder
				{
					OFFSET 0 0 0
					CHANNELS 3 Zrotation Yrotation Xrotation
					JOINT LeftArm
					{
						OFFSET 3.74344 0.81315 -0.36647
						CHANNELS 3 Zrotation Yrotation Xrotation
						JOINT LeftForeArm
						{
							OFFSET 4.97185 -0.00000 -0.00000
							CHANNELS 3 Zrotation Yrotation Xrotation
							JOINT LeftHand
							{
								OFFSET 3.35811 -0.00000 0.00000
								CHANNELS 3 Zrotation Yrotation Xrotation
								JOINT LeftFingerBase
								{
									OFFSET 0 0 0
									CHANNELS 3 Zrotation Yrotation Xrotation
									JOINT LeftHandIndex1
									{
										OFFSET 0.62278 -0.00000 0.00000
										CHANNELS 3 Zrotation Yrotation Xrotation
										End Site
										{
											OFFSET 0.50210 -0.00000 0.00000
										}
									}
								}
								JOINT LThumb
								{
									OFFSET 0 0 0
									CHANNELS 3 Zrotation Yrotation Xrotation
									End Site
									{
										OFFSET 0.50976 -0.00000 0.50976
									}
								}
							}
						}
					}
				}
				JOINT RightShoulder
				{
					OFFSET 0 0 0
					CHANNELS 3 Zrotation Yrotation Xrotation
					JOINT RightArm
					{
						OFFSET -3.75385 0.50666 -0.06525
						CHANNELS 3 Zrotation Yrotation Xrotation
						JOINT RightForeArm
						{
							OFFSET -4.96493 -0.00000 -0.00000
							CHANNELS 3 Zrotation Yrotation Xrotation
							JOINT RightHand
							{
								OFFSET -3.34929 -0.00000 0.00000
								CHANNELS 3 Zrotation Yrotation Xrotation
								JOINT RightFingerBase
								{
									OFFSET 0 0 0
									CHANNELS 3 Zrotation Yrotation Xrotation
									JOINT RightHandIndex1
									{
										OFFSET -0.63804 -0.00000 0.00000
										CHANNELS 3 Zrotation Yrotation Xrotation
										End Site
										{
											OFFSET -0.51441 -0.00000 0.00000
										}
									}
								}
								JOINT RThumb
								{
									OFFSET 0 0 0
									CHANNELS 3 Zrotation Yrotation Xrotation
									End Site
									{
										OFFSET -0.52226 -0.00000 0.52226
									}
								}
							}
						}
					}
				}
			}
		}
	}
}
MOTION
Frames: 10
Frame Time: .0083333
6.1585 15.7303 -0.9513 141.6830 -85.4256 -136.2590 0.0000 0.0000 0.0000 -4.2735 5.0848 -30.2181 6.1986 14.6181 45.7737 0.8479 -3.1641 -16.6197 0.4785 -4.4360 -12.3065 0.0000 0.0000 0.0000 2.9520 -7.0983 -33.3667 -6.0301 -14.4574 45.1023 -0.7575 -1.8128 -17.1927 -0.3764 3.9402 -10.9084 0.3830 0.8376 25.3396 1.3579 0.6367 7.5354 1.1008 0.0333 -5.7431 -4.1111 -0.2913 -28.5788 -0.1589 1.3708 24.1729 0.8655 0.1483 12.7764 0.0000 0.0000 0.0000 -83.3721 -12.1629 71.1312 48.3345 -52.3013 -24.8501 -0.0000 0.0000 -10.5936 15.3955 -13.9985 -3.8108 -7.1250 0.0000 -0.0000 -8.2227 15.5816 5.7724 0.0000 0.0000 0.0000 82.7585 9.5807 27.0060 -48.2706 52.2737 -24.7996 0.0000 -0.0000 -22.9356 -13.0849 -32.4910 7.1167 7.1250 -0.0000 -0.0000 22.7402 -61.7174 -9.5216
6.1799 15.7200 -0.9500 122.5640 -86.5400 -116.9490 0.0000 0.0000 0.0000 -4.2941 3.7821 -30.9544 6.2714 14.6863 46.0616 0.8159 -3.5628 -16.2362 0.4552 -4.3281 -12.0015 0.0000 0.0000 0.0000 2.8676 -7.9524 -33.4362 -6.1098 -14.5340 45.4210 -0.7651 -2.5897 -17.6574 -0.4177 4.1484 -11.4945 0.6509 0.7156 25.5980 1.3413 0.5828 7.2933 0.9452 0.0201 -6.1333 -3.8537 0.1050 -28.3639 -0.3644 1.8679 24.3227 0.8364 0.3569 12.7897 0.0000 -0.0000 0.0000 -82.9390 -12.9837 71.4085 49.2092 -52.6715 -25.5440 -0.0000 0.0000 -10.4579 15.6815 -14.1245 -3.9191 -7.1250 0.0000 -0.0000 -8.0284 15.4291 5.6598 0.0000 -0.0000 0.0000 83.3264 8.3471 26.4794 -48.5565 52.3965 -25.0259 0.0000 -0.0000 -23.3097 -13.3784 -32.1527 7.2136 7.1250 -0.0000 -0.0000 22.1279 -61.4811 -9.1268
6.2319 15.7092 -0.9586 80.7362 -86.3903 -74.6026 0.0000 0.0000 0.0000 -4.9209 1.8464 -32.1971 6.3208 14.7322 46.2560 0.7572 -3.8763 -15.5872 0.4465 -4.2874 -11.8866 0.0000 0.0000 0.0000 2.2584 -9.4568 -33.9065 -6.1862 -14.6063 45.7243 -0.7640 -3.4141 -18.0930 -0.4588 4.3450 -12.0492 0.6063 0.4268 26.0877 1.1994 0.2636 6.7473 0.9155 -0.1072 -6.9766 -3.3968 0.4277 -28.0665 -0.7391 2.2232 24.4381 0.6813 0.4995 12.7838 -0.0000 -0.0000 0.0000 -82.4117 -13.7401 71.8282 50.1351 -53.0499 -26.2821 -0.0000 0.0000 -10.5559 15.7373 -14.1043 -3.9283 -7.1250 0.0000 -0.0000 -7.9902 15.4451 5.6295 -0.0000 -0.0000 0.0000 83.8849 6.8670 25.8425 -49.0031 52.5854 -25.3801 0.0000 -0.0000 -23.5366 -13.4316 -31.8391 7.1805 7.1250 -0.0000 -0.0000 21.8007 -61.2065 -8.8421
6.2631 15.6965 -0.9666 57.7312 -85.5268 -51.1979 0.0000 0.0000 0.0000 -5.0917 0.5410 -33.1942 6.3574 14.7660 46.3999 0.7086 -4.1450 -15.0407 0.4639 -4.3687 -12.1163 0.0000 0.0000 0.0000 2.0453 -10.0100 -34.1074 -6.2538 -14.6698 45.9919 -0.7649 -4.3896 -18.6849 -0.4467 4.2883 -11.8891 0.6909 0.3872 26.3755 1.1473 0.2775 6.3972 0.8074 -0.0855 -7.5087 -3.0654 0.6119 -27.7812 -0.7859 2.3410 24.4899 0.6293 0.5773 12.7522 -0.0000 0.0000 0.0000 -81.9415 -14.5853 72.0338 51.1514 -53.4494 -27.0964 -0.0000 0.0000 -10.6911 15.9596 -13.8514 -3.9167 -7.1250 0.0000 -0.0000 -7.8362 15.6853 5.4780 -0.0000 0.0000 0.0000 84.3662 5.4668 25.2217 -49.6910 52.8701 -25.9276 0.0000 -0.0000 -23.6727 -13.3878 -32.5792 7.3032 7.1250 -0.0000 -0.0000 22.4955 -61.8730 -9.4962
6.2186 15.7003 -0.9503 53.1309 -85.9045 -47.1111 0.0000 0.0000 0.0000 -4.6763 1.0000 -32.6865 6.3745 14.7817 46.4670 0.7097 -4.6471 -15.0232 0.4118 -4.1196 -11.4133 0.0000 0.0000 0.0000 2.3326 -9.2133 -33.0582 -6.2550 -14.6710 45.9969 -0.7867 -4.9525 -19.2679 -0.4309 4.2128 -11.6761 1.0190 0.9578 26.3872 1.2233 1.0590 6.8302 0.4549 0.2697 -7.0328 -3.4091 0.6090 -28.1551 -0.2312 2.3416 24.7945 0.9065 0.6173 12.9319 -0.0000 -0.0000 0.0000 -81.7439 -15.9053 71.9852 52.1114 -53.8124 -27.8694 -0.0000 0.0000 -10.7972 16.6452 -13.7302 -4.0590 -7.1250 0.0000 -0.0000 -7.3657 15.7519 5.1327 -0.0000 -0.0000 0.0000 84.6241 4.5406 24.6411 -50.4394 53.1712 -26.5255 0.0000 -0.0000 -23.9063 -13.2562 -33.0726 7.3257 7.1250 -0.0000 -0.0000 23.0881 -62.2885 -9.9880
6.2068 15.6994 -0.9378 44.8104 -85.1473 -38.8914 0.0000 0.0000 0.0000 -4.9283 0.6295 -32.8497 6.4001 14.8052 46.5671 0.6776 -5.2302 -14.6620 0.3428 -3.7622 -10.4086 0.0000 0.0000 0.0000 2.0103 -9.4783 -32.5219 -6.2443 -14.6610 45.9546 -0.7948 -5.4114 -19.6543 -0.4135 4.1279 -11.4369 1.0219 1.2104 25.5981 1.2368 1.3141 7.6010 0.3988 0.3819 -5.7893 -3.1425 0.6352 -28.4543 -0.8702 2.4725 24.1259 0.6370 0.6251 12.7327 -0.0000 -0.0000 0.0000 -81.5850 -18.0469 71.7338 52.8524 -54.0831 -28.4685 -0.0000 0.0000 -11.1507 17.6412 -13.9160 -4.3735 -7.1250 0.0000 -0.0000 -6.6869 15.4728 4.6932 -0.0000 -0.0000 0.0000 84.7140 4.7232 24.1670 -50.5963 53.2332 -26.6511 0.0000 -0.0000 -24.0766 -13.1368 -32.7673 7.1992 7.1250 -0.0000 -0.0000 22.9344 -61.9816 -9.7513
6.1780 15.7068 -0.9079 40.7369 -84.7842 -34.9809 0.0000 0.0000 0.0000 -5.1102 0.6179 -32.8872 6.4311 14.8335 46.6884 0.6631 -5.6452 -14.5084 0.3425 -3.7606 -10.4040 0.0000 0.0000 0.0000 1.7910 -9.3340 -31.8729 -6.2172 -14.6355 45.8472 -0.7908 -5.9180 -19.9652 -0.3909 4.0149 -11.1185 1.2908 1.5117 25.7431 1.1307 1.7554 7.6847 -0.0031 0.5942 -5.7554 -3.0418 0.6576 -28.3656 -1.0705 2.5165 24.0566 0.5503 0.6273 12.6931 0.0000 -0.0000 0.0000 -81.3427 -19.0309 71.5965 53.5456 -54.3291 -29.0307 -0.0000 0.0000 -11.6855 18.5732 -13.9995 -4.6472 -7.1250 0.0000 -0.0000 -6.0515 15.2998 4.2644 0.0000 -0.0000 0.0000 84.8920 3.9205 23.8755 -50.7337 53.2872 -26.7612 0.0000 -0.0000 -24.0257 -13.0298 -33.2316 7.2277 7.1250 -0.0000 -0.0000 23.4802 -62.3750 -10.2157
6.1718 15.7059 -0.8935 34.0952 -84.1509 -28.3166 0.0000 0.0000 0.0000 -5.0726 0.3685 -33.3455 6.4735 14.8720 46.8536 0.6293 -6.1028 -14.1573 0.3861 -3.9900 -11.0486 0.0000 0.0000 0.0000 1.8344 -9.2591 -31.5460 -6.2347 -14.6520 45.9165 -0.7750 -6.7724 -20.4338 -0.4092 4.1066 -11.3767 1.6025 1.7082 25.8398 1.1350 2.0842 7.7591 -0.2754 0.7533 -5.7056 -3.0699 0.5547 -28.4368 -1.0921 2.3946 23.9671 0.5240 0.5708 12.6722 -0.0000 0.0000 0.0000 -81.2071 -20.1256 71.2414 54.2440 -54.5701 -29.5990 -0.0000 0.0000 -11.9960 19.0323 -13.2418 -4.5179 -7.1250 0.0000 -0.0000 -5.7166 16.0474 3.9334 -0.0000 0.0000 0.0000 84.9433 3.3681 23.6784 -50.7509 53.2939 -26.7750 0.0000 -0.0000 -23.8683 -12.9534 -33.4945 7.2341 7.1250 -0.0000 -0.0000 23.8128 -62.5926 -10.4914
6.2081 15.6864 -0.9226 25.6702 -82.3969 -19.7705 0.0000 0.0000 0.0000 -4.9640 -0.4236 -34.2662 6.5134 14.9080 47.0089 0.5412 -6.9122 -13.2459 0.4422 -4.2670 -11.8291 0.0000 0.0000 0.0000 1.9602 -9.8723 -31.3692 -6.2937 -14.7071 46.1494 -0.7571 -7.9293 -21.1691 -0.4200 4.1595 -11.5260 1.7208 1.6064 26.2335 1.2574 2.0136 7.7052 -0.1972 0.7199 -5.9596 -3.1750 0.2920 -28.5521 -0.8990 2.0194 23.9369 0.5466 0.4259 12.6817 -0.0000 -0.0000 0.0000 -81.0952 -21.0728 70.7755 54.9263 -54.7989 -30.1557 -0.0000 0.0000 -12.3674 19.0981 -12.2148 -4.1899 -7.1250 0.0000 -0.0000 -5.6475 17.1158 3.7537 -0.0000 -0.0000 0.0000 84.9201 2.9721 23.5333 -50.5890 53.2303 -26.6452 0.0000 -0.0000 -23.6335 -12.9820 -32.9530 7.1477 7.1250 -0.0000 -0.0000 23.2708 -62.1110 -9.9740
6.2105 15.6718 -0.9246 23.0202 -81.0417 -17.0198 0.0000 0.0000 0.0000 -5.2314 -0.8901 -34.8178 6.5478 14.9389 47.1425 0.4877 -7.6205 -12.7446 0.4472 -4.2907 -11.8960 0.0000 0.0000 0.0000 1.6817 -10.2557 -31.1745 -6.3607 -14.7690 46.4126 -0.7569 -8.6429 -21.7584 -0.4294 4.2052 -11.6547 1.6970 1.6168 26.0605 1.2722 2.0112 7.9049 -0.1613 0.7222 -5.6553 -3.3459 0.0726 -28.6326 -0.7004 1.7296 23.7873 0.5973 0.3160 12.6363 -0.0000 0.0000 0.0000 -81.1943 -22.0397 70.0535 55.3369 -54.9336 -30.4916 -0.0000 0.0000 -13.1574 19.6561 -12.3026 -4.3523 -7.1250 0.0000 -0.0000 -5.2614 16.9759 3.5109 -0.0000 0.0000 0.0000 84.7622 2.8773 23.4842 -50.5503 53.2151 -26.6143 0.0000 -0.0000 -23.3327 -12.9049 -32.6377 7.0444 7.1250 -0.0000 -0.0000 23.0643 -61.8060 -9.7138
